<svg width="960" height="600" viewBox="0 0 960 600" fill="none" xmlns="http://www.w3.org/2000/svg">
  <rect width="960" height="600" rx="36" fill="#F1F5F9"/>
  <rect x="64" y="64" width="832" height="472" rx="24" fill="#FFFFFF"/>
  <rect x="112" y="116" width="236" height="40" rx="10" fill="#2563EB"/>
  <rect x="112" y="182" width="420" height="20" rx="10" fill="#94A3B8"/>
  <rect x="112" y="218" width="370" height="20" rx="10" fill="#94A3B8"/>
  <rect x="112" y="270" width="170" height="52" rx="12" fill="#14B8A6"/>
  <rect x="560" y="116" width="290" height="384" rx="20" fill="#E2E8F0"/>
  <rect x="658" y="170" width="94" height="94" rx="16" fill="#2563EB"/>
  <rect x="697" y="187" width="16" height="60" rx="8" fill="#FFFFFF"/>
  <rect x="674" y="209" width="60" height="16" rx="8" fill="#FFFFFF"/>
  <rect x="622" y="320" width="166" height="18" rx="9" fill="#64748B"/>
  <rect x="650" y="352" width="108" height="18" rx="9" fill="#64748B"/>
</svg>
